<svg width="24" height="24" viewBox="0 0 24 24" fill="none" xmlns="http://www.w3.org/2000/svg">
<path fill-rule="evenodd" clip-rule="evenodd" d="M21 12C21 11.4477 20.5523 11 20 11H4C3.44772 11 3 11.4477 3 12C3 12.5523 3.44772 13 4 13H20C20.5523 13 21 12.5523 21 12Z" fill="white"/>
<path fill-rule="evenodd" clip-rule="evenodd" d="M8.70711 7.29289C8.31658 6.90237 7.68342 6.90237 7.29289 7.29289L3.29289 11.2929C2.90237 11.6834 2.90237 12.3166 3.29289 12.7071C3.68342 13.0976 4.31658 13.0976 4.70711 12.7071L8.70711 8.70711C9.09763 8.31658 9.09763 7.68342 8.70711 7.29289Z" fill="white"/>
<path fill-rule="evenodd" clip-rule="evenodd" d="M3.29289 11.2929C2.90237 11.6834 2.90237 12.3166 3.29289 12.7071L7.29289 16.7071C7.68342 17.0976 8.31658 17.0976 8.70711 16.7071C9.09763 16.3166 9.09763 15.6834 8.70711 15.2929L4.70711 11.2929C4.31658 10.9024 3.68342 10.9024 3.29289 11.2929Z" fill="white"/>
</svg>
